# xmcd
#
# Track frame offsets: 
#        150
#        3620
#        42140
#        55640
#        96000
#        112917
#        125250
#        163327
#
# Disc length: 3338 seconds
#
# Revision: 1
# Processed by: cddbd v1.5.2PL0 Copyright (c) Steve Scherf et al.
# Submitted via: ExactAudioCopy v0.99pb4
#
DISCID=5b0d0808
DTITLE=Jimi Hendrix - King and Wonder Sessions
DYEAR=1968
DGENRE=Rock
TTITLE0=Speaker Announcement
TTITLE1=Wonder Jam
TTITLE2=Little Miss Lover
TTITLE3=Catfish Blues and Rolling and Tumbling
TTITLE4=Burning Of The Midnight Lamp
TTITLE5=Hound Dog
TTITLE6=Like A Rolling Stone
TTITLE7=King Session
EXTD=
EXTT0=
EXTT1=
EXTT2=
EXTT3=
EXTT4=
EXTT5=
EXTT6=
EXTT7=
PLAYORDER=
